<svg width="256" height="154" viewBox="0 0 256 154" xmlns="http://www.w3.org/2000/svg" fill="currentColor"><path d="M128 0c70.692 0 128 34.534 128 77.154 0 42.62-57.308 77.154-128 77.154C57.308 154.308 0 119.774 0 77.154 0 34.534 57.308 0 128 0z" fill="#0B0F14"/><path d="M61 73c0-18 12-33 35-33 17 0 29 7 34 22h-20c-3-6-8-9-14-9-12 0-19 9-19 20s7 20 19 20c6 0 11-3 14-9h20c-5 15-17 22-34 22-23 0-35-15-35-33zm95-31h18v62h-18V42zm72 31c0-18-12-33-35-33-23 0-35 15-35 33s12 33 35 33c23 0 35-15 35-33zm-18 0c0 11-7 20-17 20s-17-9-17-20 7-20 17-20 17 9 17 20z" fill="#22D3EE"/></svg>