<svg viewBox="0 0 256 199" xmlns="http://www.w3.org/2000/svg" fill="currentColor"><path d="M250 94c-8-6-18-9-28-9-4-13-15-22-29-22-6 0-12 2-17 5-5-10-15-17-27-17-14 0-26 10-29 23H98v22H78v22H58v22h159c21 0 39-17 39-39 0-12-6-24-16-31z" fill="#22D3EE"/><rect x="38" y="116" width="20" height="20" fill="#0EA5E9"/><rect x="78" y="94" width="20" height="20" fill="#06B6D4"/><rect x="118" y="94" width="20" height="20" fill="#22D3EE"/><rect x="158" y="94" width="20" height="20" fill="#0EA5E9"/><rect x="118" y="72" width="20" height="20" fill="#06B6D4"/><rect x="158" y="72" width="20" height="20" fill="#22D3EE"/></svg>